<svg width="16" height="16" viewBox="0 0 16 16" fill="none" xmlns="http://www.w3.org/2000/svg">
<path d="M13.6681 5.32648C13.5788 5.23926 13.4589 5.19043 13.3341 5.19043C13.2093 5.19043 13.0894 5.23926 13.0001 5.32648L8.0011 10.1995L3.0031 5.32648C2.9138 5.23926 2.79393 5.19043 2.6691 5.19043C2.54427 5.19043 2.4244 5.23926 2.3351 5.32648C2.29155 5.36888 2.25694 5.41957 2.23331 5.47556C2.20968 5.53155 2.19751 5.59171 2.19751 5.65248C2.19751 5.71326 2.20968 5.77341 2.23331 5.82941C2.25694 5.8854 2.29155 5.93609 2.3351 5.97848L7.6521 11.1605C7.74547 11.2515 7.87071 11.3024 8.0011 11.3024C8.13149 11.3024 8.25672 11.2515 8.3501 11.1605L13.6671 5.97848C13.7106 5.93609 13.7452 5.8854 13.7689 5.82941C13.7925 5.77341 13.8047 5.71326 13.8047 5.65248C13.8047 5.59171 13.7925 5.53155 13.7689 5.47556C13.7452 5.41957 13.7106 5.36888 13.6671 5.32648H13.6681Z" fill="#999999"/>
</svg>
