<svg width="157" height="52" viewBox="0 0 157 52" fill="none" xmlns="http://www.w3.org/2000/svg">
<path d="M58.8711 12.3573C58.8711 5.70067 64.339 1.38477 70.4307 1.38477C74.4626 1.38477 77.5566 3.36411 79.5704 6.33103L74.4165 9.57111C73.6085 8.31038 71.9087 7.54554 70.4726 7.54554C67.4247 7.54554 65.6327 9.74761 65.6327 12.3573C65.6327 14.967 67.4247 17.3036 70.4726 17.3036C71.9045 17.3036 73.6085 16.5388 74.4165 15.278L79.5704 18.5181C77.5566 21.485 74.4626 23.4644 70.4307 23.4644C64.339 23.4644 58.8711 19.014 58.8711 12.3573Z" fill="black"/>
<path d="M83.334 12.4459C83.334 5.78922 88.7098 1.38086 94.6717 1.38086C100.634 1.38086 106.051 5.78922 106.051 12.4459C106.051 19.1025 100.63 23.4647 94.6717 23.4647C88.714 23.4647 83.334 19.0563 83.334 12.4459ZM99.2856 12.4459C99.2856 9.56721 97.2257 7.54163 94.6717 7.54163C92.1178 7.54163 90.0579 9.56721 90.0579 12.4459C90.0579 15.3245 92.1178 17.3039 94.6717 17.3039C97.2257 17.3039 99.2856 15.3245 99.2856 12.4459Z" fill="black"/>
<path d="M109.816 12.3573C109.816 5.70067 115.284 1.38477 121.376 1.38477C125.408 1.38477 128.502 3.36411 130.516 6.33103L125.362 9.57111C124.554 8.31038 122.854 7.54554 121.418 7.54554C118.37 7.54554 116.578 9.74761 116.578 12.3573C116.578 14.967 118.37 17.3036 121.418 17.3036C122.85 17.3036 124.554 16.5388 125.362 15.278L130.516 18.5181C128.502 21.485 125.408 23.4644 121.376 23.4644C115.284 23.4644 109.816 19.014 109.816 12.3573Z" fill="black"/>
<path d="M134.281 12.4459C134.281 5.78922 139.657 1.38086 145.619 1.38086C151.581 1.38086 156.999 5.78922 156.999 12.4459C156.999 19.1025 151.577 23.4647 145.619 23.4647C139.661 23.4647 134.281 19.0563 134.281 12.4459ZM150.233 12.4459C150.233 9.56721 148.173 7.54163 145.619 7.54163C143.065 7.54163 141.005 9.56721 141.005 12.4459C141.005 15.3245 143.065 17.3039 145.619 17.3039C148.173 17.3039 150.233 15.3245 150.233 12.4459Z" fill="black"/>
<path d="M91.884 39.0019V50.109H85.1014V40.1156C85.1014 37.3209 83.9585 36.1401 82.1749 36.1401C80.2113 36.1401 78.7836 37.4638 78.7836 40.4728V50.109H72.0011V40.1156C72.0011 37.3209 70.8958 36.1401 69.0745 36.1401C67.0774 36.1401 65.6497 37.4638 65.6497 40.4728V50.109H58.8672V30.6937H65.3274V32.7361C66.7885 31.1602 68.8233 30.3701 71.1093 30.3701C73.7511 30.3701 75.9994 31.3367 77.3559 33.4169C78.8883 31.4838 81.2831 30.3701 84.0631 30.3701C88.5597 30.3701 91.8798 32.984 91.8798 39.0019H91.884Z" fill="black"/>
<path d="M117.049 30.6934V50.1087H110.589V48.1755C109.304 49.7178 107.411 50.4323 104.878 50.4323C99.6324 50.4323 95.3828 46.5618 95.3828 40.3674C95.3828 34.173 99.6282 30.374 104.878 30.374C107.127 30.374 108.948 31.017 110.267 32.3786V30.6934H117.049ZM110.376 40.3674C110.376 37.4299 108.592 35.7826 106.306 35.7826C104.02 35.7826 102.237 37.4299 102.237 40.3674C102.237 43.3049 104.02 45.0237 106.306 45.0237C108.592 45.0237 110.376 43.3385 110.376 40.3674Z" fill="black"/>
<path d="M133.859 49.3177C132.682 50.07 130.932 50.4272 129.149 50.4272C124.187 50.4272 121.332 47.9898 121.332 43.0141V26.2842H128.115V30.6925H132.507V36.4961H128.115V42.9426C128.115 44.3757 128.902 45.1657 130.112 45.1657C130.861 45.1657 131.611 44.9514 132.18 44.5564L133.859 49.3219V49.3177Z" fill="black"/>
<path d="M152.039 43.5532L155.572 47.2765C153.751 49.3525 151.038 50.4283 147.362 50.4283C140.475 50.4283 136.012 46.1671 136.012 40.3635C136.012 34.5599 140.579 30.3701 146.717 30.3701C152.286 30.3701 156.958 33.917 156.996 40.2584L143.184 42.9102C143.933 44.4861 145.432 45.2383 147.571 45.2383C149.464 45.2383 150.711 44.7004 152.034 43.5532H152.039ZM142.652 39.4348L150.502 37.8925C150.037 36.2787 148.647 35.2071 146.755 35.2071C144.435 35.2071 142.865 36.678 142.652 39.4348Z" fill="black"/>
<path d="M17.4129 16.779C15.307 19.2794 11.5808 19.5946 9.08963 17.4808C6.5985 15.3669 6.2845 11.6268 8.39044 9.12633C10.4964 6.62588 14.2226 6.3107 16.7137 8.42452C17.2496 8.87838 17.6809 9.41209 18.0116 9.99203L24.0657 6.483C23.3414 5.22226 22.4035 4.05399 21.2271 3.05801C15.7884 -1.55627 7.6452 -0.867066 3.04813 4.5961C-1.55312 10.0593 -0.866494 18.233 4.5763 22.8473C10.0191 27.4616 18.1623 26.7766 22.7594 21.3134C23.2618 20.7166 23.6931 20.0821 24.0699 19.4265L18.0158 15.9175C17.8441 16.2158 17.6474 16.5058 17.4171 16.7832L17.4129 16.779Z" fill="#999999"/>
<path d="M24.0697 6.4834L18.0156 9.99243C19.0581 11.8037 19.0832 14.0688 18.0156 15.9137L24.0697 19.4227C26.3975 15.3842 26.3431 10.4379 24.0697 6.4834Z" fill="black"/>
<path d="M49.5584 6.4828C48.8341 5.22207 47.8962 4.05379 46.7198 3.05781C41.277 -1.55646 33.1337 -0.871466 28.5366 4.5917C23.9396 10.0549 24.622 18.2286 30.0648 22.8429C35.5076 27.4572 43.6509 26.7722 48.2479 21.309C48.7503 20.7122 49.1816 20.0777 49.5584 19.4221C51.8862 15.3836 51.8318 10.4373 49.5584 6.4828ZM42.9056 16.7788C40.7997 19.2792 37.0735 19.5944 34.5823 17.4806C32.0912 15.3667 31.7772 11.6266 33.8831 9.12613C35.9891 6.62568 39.7153 6.3105 42.2064 8.42432C42.7423 8.87819 43.1736 9.4119 43.5043 9.99183C44.5468 11.8031 44.5719 14.0682 43.5043 15.9131C43.3327 16.2114 43.1359 16.5014 42.9056 16.7788Z" fill="black"/>
<path d="M33.8715 34.7235C35.9775 32.223 39.7037 31.9079 42.1948 34.0217C44.6859 36.1355 44.9999 39.8757 42.894 42.3761C40.788 44.8766 37.0618 45.1918 34.5707 43.0779C34.0348 42.6241 33.6036 42.0904 33.2728 41.5104L27.2188 45.0195C27.9431 46.2802 28.8809 47.4485 30.0574 48.4444C35.5002 53.0587 43.6434 52.3737 48.2405 46.9106C52.8376 41.4474 52.1551 33.2737 46.7123 28.6594C41.2695 24.0451 33.1263 24.7301 28.5292 30.1933C28.0268 30.79 27.5956 31.4246 27.2188 32.0802L33.2728 35.5892C33.4445 35.2908 33.6412 35.0009 33.8715 34.7235Z" fill="#999999"/>
<path d="M27.2177 45.0194L33.2718 41.5103C32.2293 39.6991 32.2042 37.434 33.2718 35.5891L27.2177 32.0801C24.8899 36.1186 24.9443 41.0649 27.2177 45.0194Z" fill="black"/>
<path d="M21.2191 28.6552C15.7763 24.0409 7.63305 24.7259 3.03599 30.1891C2.53358 30.7859 2.10234 31.4204 1.72553 32.076C-0.60231 36.1145 -0.547882 41.0608 1.72553 45.0153C2.44984 46.276 3.38767 47.4443 4.56416 48.4403C10.0069 53.0546 18.1502 52.3696 22.7473 46.9064C27.3443 41.4432 26.6619 33.2695 21.2191 28.6552ZM17.405 42.3762C15.299 44.8766 11.5728 45.1918 9.08167 43.078C8.54577 42.6241 8.11453 42.0904 7.78378 41.5105C6.74127 39.6992 6.71615 37.4341 7.78378 35.5892C7.95543 35.2909 8.15221 35.0009 8.38248 34.7235C10.4884 32.2231 14.2146 31.9079 16.7058 34.0217C19.1969 36.1356 19.5109 39.8757 17.405 42.3762Z" fill="black"/>
</svg>
