<svg width="27" height="22" viewBox="0 0 27 22" fill="none" xmlns="http://www.w3.org/2000/svg">
<path d="M9.536 19.288C8.224 19.288 7 19.056 5.864 18.592C4.728 18.128 3.736 17.48 2.888 16.648C2.04 15.816 1.376 14.84 0.896 13.72C0.432 12.584 0.2 11.36 0.2 10.048C0.2 8.72 0.432 7.496 0.896 6.376C1.36 5.256 2.016 4.28 2.864 3.448C3.712 2.616 4.704 1.976 5.84 1.528C6.976 1.064 8.208 0.831999 9.536 0.831999C10.864 0.831999 12.096 1.064 13.232 1.528C14.368 1.992 15.36 2.64 16.208 3.472C17.056 4.288 17.712 5.256 18.176 6.376C18.656 7.496 18.896 8.72 18.896 10.048C18.896 11.36 18.656 12.584 18.176 13.72C17.696 14.84 17.032 15.816 16.184 16.648C15.336 17.48 14.344 18.128 13.208 18.592C12.088 19.056 10.864 19.288 9.536 19.288ZM9.536 16.312C10.416 16.312 11.224 16.16 11.96 15.856C12.696 15.536 13.336 15.096 13.88 14.536C14.44 13.976 14.864 13.312 15.152 12.544C15.456 11.776 15.608 10.944 15.608 10.048C15.608 9.152 15.456 8.328 15.152 7.576C14.864 6.808 14.44 6.144 13.88 5.584C13.336 5.008 12.696 4.568 11.96 4.264C11.224 3.96 10.416 3.808 9.536 3.808C8.672 3.808 7.872 3.96 7.136 4.264C6.4 4.568 5.752 5.008 5.192 5.584C4.648 6.144 4.224 6.808 3.92 7.576C3.616 8.328 3.464 9.152 3.464 10.048C3.464 10.944 3.616 11.776 3.92 12.544C4.224 13.312 4.648 13.976 5.192 14.536C5.752 15.096 6.4 15.536 7.136 15.856C7.872 16.16 8.672 16.312 9.536 16.312ZM13.664 21.16L8.096 11.848H11.504L17.144 21.16H13.664ZM23.0223 19V15.64H26.1903V19H23.0223Z" fill="#999999"/>
</svg>
